# xmcd
#
# Track frame offsets:
#	150
#	24532
#	47037
#	70567
#	91550
#	113482
#	144982
#	170107
#	187435
#	207180
#
# Disc length: 2948 seconds
#
# Revision: 2
# Processed by: cddbd v1.5.2PL0 Copyright (c) Steve Scherf et al.
# Submitted via: audiograbber 1.80.04
#
DISCID=840b820a
DTITLE=זהבה בן - איזה מן עולם
DYEAR=1900
DGENRE=Vocal
TTITLE0=איזה מן עולם
TTITLE1=טלפון האהבה
TTITLE2=נשמה תועה
TTITLE3=לבן ושחור
TTITLE4=מה עם הילד
TTITLE5=אמא
TTITLE6=מלכת המזרח
TTITLE7=ללה פטימה
TTITLE8=אדם נודד
TTITLE9=טוב לי על הלב
EXTD=
EXTT0=
EXTT1=
EXTT2=
EXTT3=
EXTT4=
EXTT5=
EXTT6=
EXTT7=
EXTT8=
EXTT9=
PLAYORDER=
